<mxfile host="drawio-plugin" modified="2022-06-26T17:02:18.971Z" agent="5.0 (Windows NT 6.2; Win64; x64) AppleWebKit/537.36 (KHTML, like Gecko) Chrome/89.0.4389.114 Safari/537.36" etag="5gwqBeRz9lW5K8KzdBRC" version="15.5.4" type="embed"><diagram id="C5RBs43oDa-KdzZeNtuy" name="Page-1"><mxGraphModel dx="2403" dy="2020" grid="1" gridSize="10" guides="1" tooltips="1" connect="1" arrows="1" fold="1" page="1" pageScale="1" pageWidth="827" pageHeight="1169" math="0" shadow="0"><root><mxCell id="WIyWlLk6GJQsqaUBKTNV-0"/><mxCell id="WIyWlLk6GJQsqaUBKTNV-1" parent="WIyWlLk6GJQsqaUBKTNV-0"/><mxCell id="Hpd59Qbbizcu43VCn_N1-1" value="BukkitMaterial" style="swimlane;fontStyle=1;align=center;verticalAlign=top;childLayout=stackLayout;horizontal=1;startSize=26;horizontalStack=0;resizeParent=1;resizeParentMax=0;resizeLast=0;collapsible=1;marginBottom=0;" parent="WIyWlLk6GJQsqaUBKTNV-1" vertex="1"><mxGeometry x="690" y="40" width="230" height="100" as="geometry"><mxRectangle x="280" y="320" width="120" height="30" as="alternateBounds"/></mxGeometry></mxCell><mxCell id="Hpd59Qbbizcu43VCn_N1-2" value="+ material: org.bukkit.Material" style="text;align=left;verticalAlign=top;spacingLeft=4;spacingRight=4;overflow=hidden;rotatable=0;points=[[0,0.5],[1,0.5]];portConstraint=eastwest;" parent="Hpd59Qbbizcu43VCn_N1-1" vertex="1"><mxGeometry y="26" width="230" height="26" as="geometry"/></mxCell><mxCell id="Hpd59Qbbizcu43VCn_N1-3" value="" style="line;strokeWidth=1;align=left;verticalAlign=middle;spacingTop=-1;spacingLeft=3;spacingRight=3;rotatable=0;labelPosition=right;points=[];portConstraint=eastwest;" parent="Hpd59Qbbizcu43VCn_N1-1" vertex="1"><mxGeometry y="52" width="230" height="8" as="geometry"/></mxCell><mxCell id="Hpd59Qbbizcu43VCn_N1-4" value="+ isSolid(): boolean&#10;+ isLiquid(): boolean&#10;" style="text;align=left;verticalAlign=top;spacingLeft=4;spacingRight=4;overflow=hidden;rotatable=0;points=[[0,0.5],[1,0.5]];portConstraint=eastwest;" parent="Hpd59Qbbizcu43VCn_N1-1" vertex="1"><mxGeometry y="60" width="230" height="40" as="geometry"/></mxCell><mxCell id="Hpd59Qbbizcu43VCn_N1-5" value="" style="endArrow=block;dashed=1;endFill=0;endSize=12;html=1;rounded=0;exitX=1;exitY=0.5;exitDx=0;exitDy=0;" parent="WIyWlLk6GJQsqaUBKTNV-1" source="Hpd59Qbbizcu43VCn_N1-11" target="Hpd59Qbbizcu43VCn_N1-4" edge="1"><mxGeometry width="160" relative="1" as="geometry"><mxPoint x="460" y="100" as="sourcePoint"/><mxPoint x="620" y="100" as="targetPoint"/></mxGeometry></mxCell><mxCell id="Hpd59Qbbizcu43VCn_N1-6" value="ForgeMaterial" style="swimlane;fontStyle=1;align=center;verticalAlign=top;childLayout=stackLayout;horizontal=1;startSize=26;horizontalStack=0;resizeParent=1;resizeParentMax=0;resizeLast=0;collapsible=1;marginBottom=0;" parent="WIyWlLk6GJQsqaUBKTNV-1" vertex="1"><mxGeometry x="340" y="40" width="290" height="100" as="geometry"/></mxCell><mxCell id="Hpd59Qbbizcu43VCn_N1-7" value="+ material: net.minecraft.world.level.material.Material" style="text;align=left;verticalAlign=top;spacingLeft=4;spacingRight=4;overflow=hidden;rotatable=0;points=[[0,0.5],[1,0.5]];portConstraint=eastwest;" parent="Hpd59Qbbizcu43VCn_N1-6" vertex="1"><mxGeometry y="26" width="290" height="26" as="geometry"/></mxCell><mxCell id="Hpd59Qbbizcu43VCn_N1-8" value="" style="line;strokeWidth=1;align=left;verticalAlign=middle;spacingTop=-1;spacingLeft=3;spacingRight=3;rotatable=0;labelPosition=right;points=[];portConstraint=eastwest;" parent="Hpd59Qbbizcu43VCn_N1-6" vertex="1"><mxGeometry y="52" width="290" height="8" as="geometry"/></mxCell><mxCell id="Hpd59Qbbizcu43VCn_N1-9" value="+ isSolid(): boolean&#10;+ isLiquid(): boolean&#10;" style="text;align=left;verticalAlign=top;spacingLeft=4;spacingRight=4;overflow=hidden;rotatable=0;points=[[0,0.5],[1,0.5]];portConstraint=eastwest;" parent="Hpd59Qbbizcu43VCn_N1-6" vertex="1"><mxGeometry y="60" width="290" height="40" as="geometry"/></mxCell><mxCell id="Hpd59Qbbizcu43VCn_N1-10" value="" style="endArrow=block;dashed=1;endFill=0;endSize=12;html=1;rounded=0;exitX=-0.011;exitY=0.464;exitDx=0;exitDy=0;exitPerimeter=0;" parent="WIyWlLk6GJQsqaUBKTNV-1" source="Hpd59Qbbizcu43VCn_N1-11" target="Hpd59Qbbizcu43VCn_N1-9" edge="1"><mxGeometry width="160" relative="1" as="geometry"><mxPoint x="510" y="90" as="sourcePoint"/><mxPoint x="670" y="90" as="targetPoint"/></mxGeometry></mxCell><mxCell id="Hpd59Qbbizcu43VCn_N1-11" value="&lt;p style=&quot;margin:0px;margin-top:4px;text-align:center;&quot;&gt;&lt;i&gt;&amp;lt;&amp;lt;Interface&amp;gt;&amp;gt;&lt;/i&gt;&lt;br&gt;&lt;b&gt;IMaterial&lt;/b&gt;&lt;/p&gt;&lt;br&gt;&lt;hr size=&quot;1&quot;&gt;&lt;p style=&quot;margin:0px;margin-left:4px;&quot;&gt;+ isSolid(): boolean&lt;br&gt;+ isLiquid(): boolean&lt;/p&gt;&lt;p style=&quot;margin:0px;margin-left:4px;&quot;&gt;&lt;br&gt;&lt;/p&gt;" style="verticalAlign=top;align=left;overflow=fill;fontSize=12;fontFamily=Helvetica;html=1;glass=0;" parent="WIyWlLk6GJQsqaUBKTNV-1" vertex="1"><mxGeometry x="530" y="210" width="190" height="140" as="geometry"/></mxCell><mxCell id="Hpd59Qbbizcu43VCn_N1-22" value="&lt;p style=&quot;margin: 0px ; margin-top: 4px ; text-align: center&quot;&gt;&lt;i&gt;&amp;lt;&amp;lt;Interface&amp;gt;&amp;gt;&lt;/i&gt;&lt;br&gt;&lt;b&gt;IWorld&lt;/b&gt;&lt;/p&gt;&lt;hr size=&quot;1&quot;&gt;&lt;p style=&quot;margin: 0px ; margin-left: 4px&quot;&gt;+ getBlock(ILocation): IBlock&lt;/p&gt;&lt;p style=&quot;margin: 0px ; margin-left: 4px&quot;&gt;+&amp;nbsp;getBlock(int x, int y, int z): IBlock&lt;br&gt;+ getMinWorldHeight(): int&lt;/p&gt;&lt;p style=&quot;margin: 0px ; margin-left: 4px&quot;&gt;+ getMaxWorldHeight(): int&lt;/p&gt;&lt;p style=&quot;margin: 0px ; margin-left: 4px&quot;&gt;+ setMaterial(ILocation, IMaterial): void&lt;/p&gt;&lt;p style=&quot;margin: 0px ; margin-left: 4px&quot;&gt;+ getMaterial(ILocation):&amp;nbsp;IMaterial&lt;/p&gt;" style="verticalAlign=top;align=left;overflow=fill;fontSize=12;fontFamily=Helvetica;html=1;glass=0;" parent="WIyWlLk6GJQsqaUBKTNV-1" vertex="1"><mxGeometry x="-125" y="210" width="250" height="140" as="geometry"/></mxCell><mxCell id="Hpd59Qbbizcu43VCn_N1-32" style="edgeStyle=orthogonalEdgeStyle;rounded=0;orthogonalLoop=1;jettySize=auto;html=1;entryX=1;entryY=0.5;entryDx=0;entryDy=0;" parent="WIyWlLk6GJQsqaUBKTNV-1" source="Hpd59Qbbizcu43VCn_N1-31" target="Hpd59Qbbizcu43VCn_N1-55" edge="1"><mxGeometry relative="1" as="geometry"><mxPoint x="120" y="575" as="targetPoint"/></mxGeometry></mxCell><mxCell id="Hpd59Qbbizcu43VCn_N1-79" style="edgeStyle=orthogonalEdgeStyle;rounded=0;orthogonalLoop=1;jettySize=auto;html=1;exitX=0.5;exitY=0;exitDx=0;exitDy=0;entryX=0.5;entryY=1;entryDx=0;entryDy=0;endArrow=block;endFill=1;" parent="WIyWlLk6GJQsqaUBKTNV-1" source="Hpd59Qbbizcu43VCn_N1-31" target="Hpd59Qbbizcu43VCn_N1-11" edge="1"><mxGeometry relative="1" as="geometry"/></mxCell><mxCell id="Hpd59Qbbizcu43VCn_N1-31" value="&lt;p style=&quot;margin:0px;margin-top:4px;text-align:center;&quot;&gt;&lt;i&gt;&amp;lt;&amp;lt;Interface&amp;gt;&amp;gt;&lt;/i&gt;&lt;br&gt;&lt;b&gt;IBlock&lt;/b&gt;&lt;/p&gt;&lt;hr size=&quot;1&quot;&gt;&lt;p style=&quot;margin:0px;margin-left:4px;&quot;&gt;&lt;span style=&quot;background-color: initial;&quot;&gt;+ final location: ILocation&lt;/span&gt;&lt;br&gt;&lt;/p&gt;&lt;p style=&quot;margin:0px;margin-left:4px;&quot;&gt;&lt;span style=&quot;background-color: initial;&quot;&gt;+ material: IMaterial&lt;/span&gt;&lt;/p&gt;&lt;hr size=&quot;1&quot;&gt;&lt;p style=&quot;margin:0px;margin-left:4px;&quot;&gt;+ getMaterial(): IMaterial&lt;br&gt;+ setMaterial(IMaterial material): void&lt;/p&gt;&lt;p style=&quot;margin:0px;margin-left:4px;&quot;&gt;&lt;br&gt;&lt;/p&gt;" style="verticalAlign=top;align=left;overflow=fill;fontSize=12;fontFamily=Helvetica;html=1;glass=0;" parent="WIyWlLk6GJQsqaUBKTNV-1" vertex="1"><mxGeometry x="530" y="510" width="190" height="130" as="geometry"/></mxCell><mxCell id="Hpd59Qbbizcu43VCn_N1-36" value="ForgeBlock" style="swimlane;fontStyle=1;align=center;verticalAlign=top;childLayout=stackLayout;horizontal=1;startSize=26;horizontalStack=0;resizeParent=1;resizeParentMax=0;resizeLast=0;collapsible=1;marginBottom=0;glass=0;" parent="WIyWlLk6GJQsqaUBKTNV-1" vertex="1"><mxGeometry x="340" y="687" width="250" height="110" as="geometry"/></mxCell><mxCell id="Hpd59Qbbizcu43VCn_N1-37" value="-block: net.minecraft.world.level.block" style="text;strokeColor=none;fillColor=none;align=left;verticalAlign=top;spacingLeft=4;spacingRight=4;overflow=hidden;rotatable=0;points=[[0,0.5],[1,0.5]];portConstraint=eastwest;glass=0;" parent="Hpd59Qbbizcu43VCn_N1-36" vertex="1"><mxGeometry y="26" width="250" height="26" as="geometry"/></mxCell><mxCell id="Hpd59Qbbizcu43VCn_N1-38" value="" style="line;strokeWidth=1;fillColor=none;align=left;verticalAlign=middle;spacingTop=-1;spacingLeft=3;spacingRight=3;rotatable=0;labelPosition=right;points=[];portConstraint=eastwest;glass=0;" parent="Hpd59Qbbizcu43VCn_N1-36" vertex="1"><mxGeometry y="52" width="250" height="8" as="geometry"/></mxCell><mxCell id="Hpd59Qbbizcu43VCn_N1-39" value="+ getMaterial(): ForgeMaterial&#10;+ setMaterial(ForgeMaterial material): void" style="text;strokeColor=none;fillColor=none;align=left;verticalAlign=top;spacingLeft=4;spacingRight=4;overflow=hidden;rotatable=0;points=[[0,0.5],[1,0.5]];portConstraint=eastwest;glass=0;" parent="Hpd59Qbbizcu43VCn_N1-36" vertex="1"><mxGeometry y="60" width="250" height="50" as="geometry"/></mxCell><mxCell id="Hpd59Qbbizcu43VCn_N1-40" value="BukkitBlock" style="swimlane;fontStyle=1;align=center;verticalAlign=top;childLayout=stackLayout;horizontal=1;startSize=26;horizontalStack=0;resizeParent=1;resizeParentMax=0;resizeLast=0;collapsible=1;marginBottom=0;glass=0;" parent="WIyWlLk6GJQsqaUBKTNV-1" vertex="1"><mxGeometry x="640" y="687" width="250" height="110" as="geometry"/></mxCell><mxCell id="Hpd59Qbbizcu43VCn_N1-41" value="- block: org.bukkit.Block" style="text;strokeColor=none;fillColor=none;align=left;verticalAlign=top;spacingLeft=4;spacingRight=4;overflow=hidden;rotatable=0;points=[[0,0.5],[1,0.5]];portConstraint=eastwest;glass=0;" parent="Hpd59Qbbizcu43VCn_N1-40" vertex="1"><mxGeometry y="26" width="250" height="26" as="geometry"/></mxCell><mxCell id="Hpd59Qbbizcu43VCn_N1-42" value="" style="line;strokeWidth=1;fillColor=none;align=left;verticalAlign=middle;spacingTop=-1;spacingLeft=3;spacingRight=3;rotatable=0;labelPosition=right;points=[];portConstraint=eastwest;glass=0;" parent="Hpd59Qbbizcu43VCn_N1-40" vertex="1"><mxGeometry y="52" width="250" height="8" as="geometry"/></mxCell><mxCell id="Hpd59Qbbizcu43VCn_N1-43" value="+ getMaterial(): ForgeMaterial&#10;+ setMaterial(ForgeMaterial material): void" style="text;strokeColor=none;fillColor=none;align=left;verticalAlign=top;spacingLeft=4;spacingRight=4;overflow=hidden;rotatable=0;points=[[0,0.5],[1,0.5]];portConstraint=eastwest;glass=0;" parent="Hpd59Qbbizcu43VCn_N1-40" vertex="1"><mxGeometry y="60" width="250" height="50" as="geometry"/></mxCell><mxCell id="Hpd59Qbbizcu43VCn_N1-45" value="" style="endArrow=block;dashed=1;endFill=0;endSize=12;html=1;rounded=0;exitX=1;exitY=0.75;exitDx=0;exitDy=0;entryX=0.5;entryY=0;entryDx=0;entryDy=0;" parent="WIyWlLk6GJQsqaUBKTNV-1" source="Hpd59Qbbizcu43VCn_N1-31" target="Hpd59Qbbizcu43VCn_N1-40" edge="1"><mxGeometry width="160" relative="1" as="geometry"><mxPoint x="480.0000000000003" y="544.3399999999999" as="sourcePoint"/><mxPoint x="510" y="500" as="targetPoint"/></mxGeometry></mxCell><mxCell id="Hpd59Qbbizcu43VCn_N1-46" value="" style="endArrow=block;dashed=1;endFill=0;endSize=12;html=1;rounded=0;exitX=0;exitY=0.75;exitDx=0;exitDy=0;entryX=0.5;entryY=0;entryDx=0;entryDy=0;" parent="WIyWlLk6GJQsqaUBKTNV-1" source="Hpd59Qbbizcu43VCn_N1-31" target="Hpd59Qbbizcu43VCn_N1-36" edge="1"><mxGeometry width="160" relative="1" as="geometry"><mxPoint x="430" y="552.5" as="sourcePoint"/><mxPoint x="519.9999999999995" y="510" as="targetPoint"/></mxGeometry></mxCell><mxCell id="Hpd59Qbbizcu43VCn_N1-47" value="ForgeLocation" style="swimlane;fontStyle=1;align=center;verticalAlign=top;childLayout=stackLayout;horizontal=1;startSize=26;horizontalStack=0;resizeParent=1;resizeParentMax=0;resizeLast=0;collapsible=1;marginBottom=0;glass=0;" parent="WIyWlLk6GJQsqaUBKTNV-1" vertex="1"><mxGeometry x="-270" y="870" width="250" height="180" as="geometry"/></mxCell><mxCell id="Hpd59Qbbizcu43VCn_N1-48" value="-location: " style="text;strokeColor=none;fillColor=none;align=left;verticalAlign=top;spacingLeft=4;spacingRight=4;overflow=hidden;rotatable=0;points=[[0,0.5],[1,0.5]];portConstraint=eastwest;glass=0;" parent="Hpd59Qbbizcu43VCn_N1-47" vertex="1"><mxGeometry y="26" width="250" height="26" as="geometry"/></mxCell><mxCell id="Hpd59Qbbizcu43VCn_N1-49" value="" style="line;strokeWidth=1;fillColor=none;align=left;verticalAlign=middle;spacingTop=-1;spacingLeft=3;spacingRight=3;rotatable=0;labelPosition=right;points=[];portConstraint=eastwest;glass=0;" parent="Hpd59Qbbizcu43VCn_N1-47" vertex="1"><mxGeometry y="52" width="250" height="8" as="geometry"/></mxCell><mxCell id="Hpd59Qbbizcu43VCn_N1-50" value="+ getX(): int&#10;+ getY(): int&#10;+ getZ(): int&#10;+ setX(int x): void&#10;+ setY(int y): void&#10;+ setZ(int z): void&#10;+ getWorld(): IWorld" style="text;strokeColor=none;fillColor=none;align=left;verticalAlign=top;spacingLeft=4;spacingRight=4;overflow=hidden;rotatable=0;points=[[0,0.5],[1,0.5]];portConstraint=eastwest;glass=0;" parent="Hpd59Qbbizcu43VCn_N1-47" vertex="1"><mxGeometry y="60" width="250" height="120" as="geometry"/></mxCell><mxCell id="Hpd59Qbbizcu43VCn_N1-51" value="BukkitLocation" style="swimlane;fontStyle=1;align=center;verticalAlign=top;childLayout=stackLayout;horizontal=1;startSize=26;horizontalStack=0;resizeParent=1;resizeParentMax=0;resizeLast=0;collapsible=1;marginBottom=0;glass=0;" parent="WIyWlLk6GJQsqaUBKTNV-1" vertex="1"><mxGeometry x="20" y="870" width="250" height="180" as="geometry"/></mxCell><mxCell id="Hpd59Qbbizcu43VCn_N1-52" value="- location: org.bukkit.Location" style="text;strokeColor=none;fillColor=none;align=left;verticalAlign=top;spacingLeft=4;spacingRight=4;overflow=hidden;rotatable=0;points=[[0,0.5],[1,0.5]];portConstraint=eastwest;glass=0;" parent="Hpd59Qbbizcu43VCn_N1-51" vertex="1"><mxGeometry y="26" width="250" height="26" as="geometry"/></mxCell><mxCell id="Hpd59Qbbizcu43VCn_N1-53" value="" style="line;strokeWidth=1;fillColor=none;align=left;verticalAlign=middle;spacingTop=-1;spacingLeft=3;spacingRight=3;rotatable=0;labelPosition=right;points=[];portConstraint=eastwest;glass=0;" parent="Hpd59Qbbizcu43VCn_N1-51" vertex="1"><mxGeometry y="52" width="250" height="8" as="geometry"/></mxCell><mxCell id="Hpd59Qbbizcu43VCn_N1-54" value="+ getX(): int&#10;+ getY(): int&#10;+ getZ(): int&#10;+ setX(int x): void&#10;+ setY(int y): void&#10;+ setZ(int z): void&#10;+ getWorld(): IWorld" style="text;strokeColor=none;fillColor=none;align=left;verticalAlign=top;spacingLeft=4;spacingRight=4;overflow=hidden;rotatable=0;points=[[0,0.5],[1,0.5]];portConstraint=eastwest;glass=0;" parent="Hpd59Qbbizcu43VCn_N1-51" vertex="1"><mxGeometry y="60" width="250" height="120" as="geometry"/></mxCell><mxCell id="Hpd59Qbbizcu43VCn_N1-59" style="edgeStyle=orthogonalEdgeStyle;rounded=0;orthogonalLoop=1;jettySize=auto;html=1;exitX=0.5;exitY=0;exitDx=0;exitDy=0;entryX=0.5;entryY=1;entryDx=0;entryDy=0;endArrow=block;endFill=1;" parent="WIyWlLk6GJQsqaUBKTNV-1" source="Hpd59Qbbizcu43VCn_N1-55" target="Hpd59Qbbizcu43VCn_N1-22" edge="1"><mxGeometry relative="1" as="geometry"/></mxCell><mxCell id="Hpd59Qbbizcu43VCn_N1-55" value="&lt;p style=&quot;margin: 0px ; margin-top: 4px ; text-align: center&quot;&gt;&lt;i&gt;&amp;lt;&amp;lt;Interface&amp;gt;&amp;gt;&lt;/i&gt;&lt;br&gt;&lt;b&gt;ILocation&lt;/b&gt;&lt;/p&gt;&lt;hr size=&quot;1&quot;&gt;&lt;p style=&quot;margin: 0px ; margin-left: 4px&quot;&gt;+ final world: IWorld&lt;/p&gt;&lt;hr size=&quot;1&quot;&gt;&lt;p style=&quot;margin: 0px 0px 0px 4px&quot;&gt;+ getX(): int&lt;br&gt;&lt;/p&gt;&lt;p style=&quot;margin: 0px 0px 0px 4px&quot;&gt;+ getY(): int&lt;br&gt;&lt;/p&gt;&lt;p style=&quot;margin: 0px 0px 0px 4px&quot;&gt;+ getZ(): int&lt;br&gt;&lt;/p&gt;&lt;p style=&quot;margin: 0px 0px 0px 4px&quot;&gt;+ setX(int x): void&lt;/p&gt;&lt;p style=&quot;margin: 0px 0px 0px 4px&quot;&gt;+ setY(int y): void&lt;br&gt;&lt;/p&gt;&lt;p style=&quot;margin: 0px 0px 0px 4px&quot;&gt;+ setZ(int z): void&lt;br&gt;&lt;/p&gt;&lt;p style=&quot;margin: 0px 0px 0px 4px&quot;&gt;+ default addX(int x): void&lt;/p&gt;&lt;p style=&quot;margin: 0px 0px 0px 4px&quot;&gt;+ default addY(int y): void&lt;br&gt;&lt;/p&gt;&lt;p style=&quot;margin: 0px 0px 0px 4px&quot;&gt;+ default addZ(int z): void&lt;br&gt;&lt;/p&gt;&lt;p style=&quot;margin: 0px 0px 0px 4px&quot;&gt;+ getYaw(): float&lt;/p&gt;&lt;p style=&quot;margin: 0px 0px 0px 4px&quot;&gt;+ getPitch(): float&amp;nbsp;&lt;/p&gt;&lt;p style=&quot;margin: 0px 0px 0px 4px&quot;&gt;+ setYaw(float yaw): void&lt;/p&gt;&lt;p style=&quot;margin: 0px 0px 0px 4px&quot;&gt;+ setPitch(float pitch): void&lt;/p&gt;&lt;p style=&quot;margin: 0px 0px 0px 4px&quot;&gt;+ getWorld(): IWorld&lt;/p&gt;&lt;p style=&quot;margin: 0px 0px 0px 4px&quot;&gt;&lt;br&gt;&lt;/p&gt;" style="verticalAlign=top;align=left;overflow=fill;fontSize=12;fontFamily=Helvetica;html=1;glass=0;" parent="WIyWlLk6GJQsqaUBKTNV-1" vertex="1"><mxGeometry x="-95" y="410" width="190" height="277" as="geometry"/></mxCell><mxCell id="Hpd59Qbbizcu43VCn_N1-57" value="" style="endArrow=block;dashed=1;endFill=0;endSize=12;html=1;rounded=0;entryX=0.5;entryY=0;entryDx=0;entryDy=0;exitX=0.75;exitY=0;exitDx=0;exitDy=0;" parent="WIyWlLk6GJQsqaUBKTNV-1" source="0" target="Hpd59Qbbizcu43VCn_N1-51" edge="1"><mxGeometry width="160" relative="1" as="geometry"><mxPoint x="50" y="690" as="sourcePoint"/><mxPoint x="140" y="720" as="targetPoint"/></mxGeometry></mxCell><mxCell id="Hpd59Qbbizcu43VCn_N1-58" value="" style="endArrow=block;dashed=1;endFill=0;endSize=12;html=1;rounded=0;entryX=0.5;entryY=0;entryDx=0;entryDy=0;exitX=0.25;exitY=0;exitDx=0;exitDy=0;" parent="WIyWlLk6GJQsqaUBKTNV-1" source="0" target="Hpd59Qbbizcu43VCn_N1-47" edge="1"><mxGeometry width="160" relative="1" as="geometry"><mxPoint x="50" y="700" as="sourcePoint"/><mxPoint x="195" y="770" as="targetPoint"/></mxGeometry></mxCell><mxCell id="Hpd59Qbbizcu43VCn_N1-68" value="ForgeWorld" style="swimlane;fontStyle=1;align=center;verticalAlign=top;childLayout=stackLayout;horizontal=1;startSize=26;horizontalStack=0;resizeParent=1;resizeParentMax=0;resizeLast=0;collapsible=1;marginBottom=0;glass=0;" parent="WIyWlLk6GJQsqaUBKTNV-1" vertex="1"><mxGeometry x="-270" y="-20" width="250" height="120" as="geometry"/></mxCell><mxCell id="Hpd59Qbbizcu43VCn_N1-69" value="- level: net.minecraft.world.level.Level " style="text;strokeColor=none;fillColor=none;align=left;verticalAlign=top;spacingLeft=4;spacingRight=4;overflow=hidden;rotatable=0;points=[[0,0.5],[1,0.5]];portConstraint=eastwest;glass=0;" parent="Hpd59Qbbizcu43VCn_N1-68" vertex="1"><mxGeometry y="26" width="250" height="26" as="geometry"/></mxCell><mxCell id="Hpd59Qbbizcu43VCn_N1-70" value="" style="line;strokeWidth=1;fillColor=none;align=left;verticalAlign=middle;spacingTop=-1;spacingLeft=3;spacingRight=3;rotatable=0;labelPosition=right;points=[];portConstraint=eastwest;glass=0;" parent="Hpd59Qbbizcu43VCn_N1-68" vertex="1"><mxGeometry y="52" width="250" height="8" as="geometry"/></mxCell><mxCell id="Hpd59Qbbizcu43VCn_N1-80" value="&lt;p style=&quot;margin: 0px 0px 0px 4px&quot;&gt;+ getBlock(ILocation): IBlock&lt;br&gt;&lt;/p&gt;&lt;p style=&quot;margin: 0px 0px 0px 4px&quot;&gt;+ getMinWorldHeight(): int&lt;/p&gt;&lt;p style=&quot;margin: 0px 0px 0px 4px&quot;&gt;+ getMaxWorldHeight(): int&lt;/p&gt;&lt;p style=&quot;margin: 0px 0px 0px 4px&quot;&gt;+ setBlock(IMaterial): void&lt;/p&gt;" style="text;html=1;align=left;verticalAlign=middle;resizable=0;points=[];autosize=1;strokeColor=none;fillColor=none;" parent="Hpd59Qbbizcu43VCn_N1-68" vertex="1"><mxGeometry y="60" width="250" height="60" as="geometry"/></mxCell><mxCell id="Hpd59Qbbizcu43VCn_N1-72" value="BukkitWorld" style="swimlane;fontStyle=1;align=center;verticalAlign=top;childLayout=stackLayout;horizontal=1;startSize=26;horizontalStack=0;resizeParent=1;resizeParentMax=0;resizeLast=0;collapsible=1;marginBottom=0;glass=0;" parent="WIyWlLk6GJQsqaUBKTNV-1" vertex="1"><mxGeometry x="20" y="-22" width="250" height="130" as="geometry"/></mxCell><mxCell id="Hpd59Qbbizcu43VCn_N1-73" value="- world: org.bukkit.World" style="text;strokeColor=none;fillColor=none;align=left;verticalAlign=top;spacingLeft=4;spacingRight=4;overflow=hidden;rotatable=0;points=[[0,0.5],[1,0.5]];portConstraint=eastwest;glass=0;" parent="Hpd59Qbbizcu43VCn_N1-72" vertex="1"><mxGeometry y="26" width="250" height="26" as="geometry"/></mxCell><mxCell id="Hpd59Qbbizcu43VCn_N1-74" value="" style="line;strokeWidth=1;fillColor=none;align=left;verticalAlign=middle;spacingTop=-1;spacingLeft=3;spacingRight=3;rotatable=0;labelPosition=right;points=[];portConstraint=eastwest;glass=0;" parent="Hpd59Qbbizcu43VCn_N1-72" vertex="1"><mxGeometry y="52" width="250" height="8" as="geometry"/></mxCell><mxCell id="Hpd59Qbbizcu43VCn_N1-75" value="+ getBlock(ILocation): IBlock&#10;+ getMinWorldHeight(): int&#10;+ getMaxWorldHeight(): int&#10;+ setBlock(IMaterial): void" style="text;strokeColor=none;fillColor=none;align=left;verticalAlign=top;spacingLeft=4;spacingRight=4;overflow=hidden;rotatable=0;points=[[0,0.5],[1,0.5]];portConstraint=eastwest;glass=0;" parent="Hpd59Qbbizcu43VCn_N1-72" vertex="1"><mxGeometry y="60" width="250" height="70" as="geometry"/></mxCell><mxCell id="Hpd59Qbbizcu43VCn_N1-76" value="" style="endArrow=block;dashed=1;endFill=0;endSize=12;html=1;rounded=0;entryX=0.5;entryY=1;entryDx=0;entryDy=0;exitX=0.75;exitY=0;exitDx=0;exitDy=0;" parent="WIyWlLk6GJQsqaUBKTNV-1" source="Hpd59Qbbizcu43VCn_N1-22" target="Hpd59Qbbizcu43VCn_N1-72" edge="1"><mxGeometry width="160" relative="1" as="geometry"><mxPoint x="50" y="-77" as="sourcePoint"/><mxPoint x="140" y="-47" as="targetPoint"/></mxGeometry></mxCell><mxCell id="Hpd59Qbbizcu43VCn_N1-77" value="" style="endArrow=block;dashed=1;endFill=0;endSize=12;html=1;rounded=0;entryX=0.5;entryY=1;entryDx=0;entryDy=0;exitX=0.25;exitY=0;exitDx=0;exitDy=0;" parent="WIyWlLk6GJQsqaUBKTNV-1" source="Hpd59Qbbizcu43VCn_N1-22" target="Hpd59Qbbizcu43VCn_N1-68" edge="1"><mxGeometry width="160" relative="1" as="geometry"><mxPoint x="-42.5" y="-79.99999999999955" as="sourcePoint"/><mxPoint x="195" y="3" as="targetPoint"/></mxGeometry></mxCell><mxCell id="Hpd59Qbbizcu43VCn_N1-85" value="&lt;p style=&quot;margin: 0px ; margin-top: 4px ; text-align: center&quot;&gt;&lt;i&gt;&amp;lt;&amp;lt;Interface&amp;gt;&amp;gt;&lt;/i&gt;&lt;br&gt;&lt;b&gt;IPlayer&lt;/b&gt;&lt;/p&gt;&lt;hr size=&quot;1&quot;&gt;&lt;p style=&quot;margin: 0px ; margin-left: 4px&quot;&gt;+ getWorld(): IWorld&lt;br&gt;&lt;/p&gt;&lt;p style=&quot;margin: 0px ; margin-left: 4px&quot;&gt;+&amp;nbsp;getUniqueId(): java.util.UUID&lt;/p&gt;&lt;p style=&quot;margin: 0px ; margin-left: 4px&quot;&gt;+ sendMessage(String message): void&lt;/p&gt;&lt;p style=&quot;margin: 0px ; margin-left: 4px&quot;&gt;+ hasPermission(String permissionNode): boolean&lt;/p&gt;&lt;p style=&quot;margin: 0px ; margin-left: 4px&quot;&gt;+ getLocation(): ILocation&lt;/p&gt;&lt;p style=&quot;margin: 0px ; margin-left: 4px&quot;&gt;+ isSneaking(): boolean&lt;/p&gt;&lt;p style=&quot;margin: 0px ; margin-left: 4px&quot;&gt;&lt;br&gt;&lt;/p&gt;" style="verticalAlign=top;align=left;overflow=fill;fontSize=12;fontFamily=Helvetica;html=1;glass=0;" parent="WIyWlLk6GJQsqaUBKTNV-1" vertex="1"><mxGeometry x="-660" y="40" width="280" height="140" as="geometry"/></mxCell><mxCell id="Hpd59Qbbizcu43VCn_N1-86" value="ForgePlayer" style="swimlane;fontStyle=1;align=center;verticalAlign=top;childLayout=stackLayout;horizontal=1;startSize=26;horizontalStack=0;resizeParent=1;resizeParentMax=0;resizeLast=0;collapsible=1;marginBottom=0;glass=0;" parent="WIyWlLk6GJQsqaUBKTNV-1" vertex="1"><mxGeometry x="-830" y="-128" width="270" height="60" as="geometry"/></mxCell><mxCell id="Hpd59Qbbizcu43VCn_N1-87" value="- player: net.minecraft.world.entity.player.Player" style="text;strokeColor=none;fillColor=none;align=left;verticalAlign=top;spacingLeft=4;spacingRight=4;overflow=hidden;rotatable=0;points=[[0,0.5],[1,0.5]];portConstraint=eastwest;glass=0;" parent="Hpd59Qbbizcu43VCn_N1-86" vertex="1"><mxGeometry y="26" width="270" height="26" as="geometry"/></mxCell><mxCell id="Hpd59Qbbizcu43VCn_N1-88" value="" style="line;strokeWidth=1;fillColor=none;align=left;verticalAlign=middle;spacingTop=-1;spacingLeft=3;spacingRight=3;rotatable=0;labelPosition=right;points=[];portConstraint=eastwest;glass=0;" parent="Hpd59Qbbizcu43VCn_N1-86" vertex="1"><mxGeometry y="52" width="270" height="8" as="geometry"/></mxCell><mxCell id="Hpd59Qbbizcu43VCn_N1-90" value="BukkitPlayer" style="swimlane;fontStyle=1;align=center;verticalAlign=top;childLayout=stackLayout;horizontal=1;startSize=26;horizontalStack=0;resizeParent=1;resizeParentMax=0;resizeLast=0;collapsible=1;marginBottom=0;glass=0;" parent="WIyWlLk6GJQsqaUBKTNV-1" vertex="1"><mxGeometry x="-540" y="-127" width="250" height="60" as="geometry"/></mxCell><mxCell id="Hpd59Qbbizcu43VCn_N1-91" value="- player: org.bukkit.entity.Player" style="text;strokeColor=none;fillColor=none;align=left;verticalAlign=top;spacingLeft=4;spacingRight=4;overflow=hidden;rotatable=0;points=[[0,0.5],[1,0.5]];portConstraint=eastwest;glass=0;" parent="Hpd59Qbbizcu43VCn_N1-90" vertex="1"><mxGeometry y="26" width="250" height="26" as="geometry"/></mxCell><mxCell id="Hpd59Qbbizcu43VCn_N1-92" value="" style="line;strokeWidth=1;fillColor=none;align=left;verticalAlign=middle;spacingTop=-1;spacingLeft=3;spacingRight=3;rotatable=0;labelPosition=right;points=[];portConstraint=eastwest;glass=0;" parent="Hpd59Qbbizcu43VCn_N1-90" vertex="1"><mxGeometry y="52" width="250" height="8" as="geometry"/></mxCell><mxCell id="Hpd59Qbbizcu43VCn_N1-94" value="" style="endArrow=block;dashed=1;endFill=0;endSize=12;html=1;rounded=0;entryX=0.5;entryY=1;entryDx=0;entryDy=0;exitX=0.75;exitY=0;exitDx=0;exitDy=0;" parent="WIyWlLk6GJQsqaUBKTNV-1" source="Hpd59Qbbizcu43VCn_N1-85" target="Hpd59Qbbizcu43VCn_N1-90" edge="1"><mxGeometry width="160" relative="1" as="geometry"><mxPoint x="-510" y="-185" as="sourcePoint"/><mxPoint x="-420" y="-155" as="targetPoint"/></mxGeometry></mxCell><mxCell id="Hpd59Qbbizcu43VCn_N1-95" value="" style="endArrow=block;dashed=1;endFill=0;endSize=12;html=1;rounded=0;entryX=0.5;entryY=1;entryDx=0;entryDy=0;exitX=0.25;exitY=0;exitDx=0;exitDy=0;" parent="WIyWlLk6GJQsqaUBKTNV-1" source="Hpd59Qbbizcu43VCn_N1-85" target="Hpd59Qbbizcu43VCn_N1-86" edge="1"><mxGeometry width="160" relative="1" as="geometry"><mxPoint x="-602.5" y="-187.99999999999955" as="sourcePoint"/><mxPoint x="-365" y="-105" as="targetPoint"/></mxGeometry></mxCell><mxCell id="0" value="AbstractLocation" style="swimlane;fontStyle=1;align=center;verticalAlign=top;childLayout=stackLayout;horizontal=1;startSize=26;horizontalStack=0;resizeParent=1;resizeParentMax=0;resizeLast=0;collapsible=1;marginBottom=0;" parent="WIyWlLk6GJQsqaUBKTNV-1" vertex="1"><mxGeometry x="-80" y="750" width="160" height="60" as="geometry"/></mxCell><mxCell id="1" value="+ final world: IWorld" style="text;strokeColor=none;fillColor=none;align=left;verticalAlign=top;spacingLeft=4;spacingRight=4;overflow=hidden;rotatable=0;points=[[0,0.5],[1,0.5]];portConstraint=eastwest;" parent="0" vertex="1"><mxGeometry y="26" width="160" height="26" as="geometry"/></mxCell><mxCell id="2" value="" style="line;strokeWidth=1;fillColor=none;align=left;verticalAlign=middle;spacingTop=-1;spacingLeft=3;spacingRight=3;rotatable=0;labelPosition=right;points=[];portConstraint=eastwest;" parent="0" vertex="1"><mxGeometry y="52" width="160" height="8" as="geometry"/></mxCell><mxCell id="4" value="" style="endArrow=block;dashed=1;endFill=0;endSize=12;html=1;rounded=0;exitX=0.5;exitY=1;exitDx=0;exitDy=0;" parent="WIyWlLk6GJQsqaUBKTNV-1" source="Hpd59Qbbizcu43VCn_N1-55" target="0" edge="1"><mxGeometry width="160" relative="1" as="geometry"><mxPoint x="-90" y="770" as="sourcePoint"/><mxPoint x="70" y="770" as="targetPoint"/></mxGeometry></mxCell><mxCell id="5" value="&lt;p style=&quot;margin: 0px ; margin-top: 4px ; text-align: center&quot;&gt;&lt;i&gt;&amp;lt;&amp;lt;Interface&amp;gt;&amp;gt;&lt;/i&gt;&lt;br&gt;&lt;b&gt;IVoxelsniper&lt;/b&gt;&lt;/p&gt;&lt;br&gt;&lt;hr size=&quot;1&quot;&gt;&lt;p style=&quot;margin: 0px ; margin-left: 4px&quot;&gt;+ getPlayer(UUID uuid): IPlayer&lt;/p&gt;&lt;p style=&quot;margin: 0px ; margin-left: 4px&quot;&gt;+ getEnvironment(): VoxelEnvironment&lt;/p&gt;" style="verticalAlign=top;align=left;overflow=fill;fontSize=12;fontFamily=Helvetica;html=1;" parent="WIyWlLk6GJQsqaUBKTNV-1" vertex="1"><mxGeometry x="-750" y="460" width="230" height="140" as="geometry"/></mxCell><mxCell id="7" style="edgeStyle=orthogonalEdgeStyle;rounded=0;orthogonalLoop=1;jettySize=auto;html=1;entryX=1;entryY=0.5;entryDx=0;entryDy=0;" parent="WIyWlLk6GJQsqaUBKTNV-1" source="6" target="5" edge="1"><mxGeometry relative="1" as="geometry"/></mxCell><mxCell id="6" value="&lt;p style=&quot;margin: 0px ; margin-top: 4px ; text-align: center&quot;&gt;&lt;i&gt;&amp;lt;&amp;lt;enumeration&amp;gt;&amp;gt;&lt;/i&gt;&lt;br&gt;&lt;b&gt;VoxelEnvironment&lt;/b&gt;&lt;/p&gt;&lt;br&gt;&lt;hr size=&quot;1&quot;&gt;&lt;p style=&quot;margin: 0px ; margin-left: 4px&quot;&gt;BUKKIT&lt;/p&gt;&lt;p style=&quot;margin: 0px ; margin-left: 4px&quot;&gt;FORGE&lt;/p&gt;" style="verticalAlign=top;align=left;overflow=fill;fontSize=12;fontFamily=Helvetica;html=1;" parent="WIyWlLk6GJQsqaUBKTNV-1" vertex="1"><mxGeometry x="-420" y="460" width="190" height="140" as="geometry"/></mxCell><mxCell id="8" value="VoxelEnvironment is a utility enum. It can for example be used to disable brushes based on environment&lt;br&gt;" style="shape=note;strokeWidth=2;fontSize=14;size=20;whiteSpace=wrap;html=1;fillColor=#fff2cc;strokeColor=#d6b656;fontColor=#666600;" parent="WIyWlLk6GJQsqaUBKTNV-1" vertex="1"><mxGeometry x="-420" y="370" width="190" height="80" as="geometry"/></mxCell></root></mxGraphModel></diagram></mxfile>